<svg width="84" height="84" viewBox="0 0 84 84" fill="none" xmlns="http://www.w3.org/2000/svg">
<g filter="url(#filter0_d_11_191)">
<circle cx="38" cy="32" r="18" fill="white"/>
<circle cx="38" cy="32" r="17.5" stroke="#DADADA"/>
</g>
<path d="M35.1962 38.93C34.9387 38.6722 34.7941 38.3227 34.7941 37.9584C34.7941 37.594 34.9387 37.2445 35.1962 36.9867L40.1829 32L35.1962 27.0134C34.9533 26.7527 34.8211 26.408 34.8274 26.0517C34.8337 25.6955 34.978 25.3556 35.2299 25.1037C35.4818 24.8518 35.8217 24.7075 36.1779 24.7012C36.5341 24.6949 36.8789 24.8272 37.1395 25.07L43.0979 31.0284C43.3554 31.2862 43.5 31.6357 43.5 32C43.5 32.3644 43.3554 32.7139 43.0979 32.9717L37.1395 38.93C36.8817 39.1875 36.5323 39.3322 36.1679 39.3322C35.8035 39.3322 35.454 39.1875 35.1962 38.93Z" fill="#6F6F6F"/>
<defs>
<filter id="filter0_d_11_191" x="0" y="0" width="84" height="84" filterUnits="userSpaceOnUse" color-interpolation-filters="sRGB">
<feFlood flood-opacity="0" result="BackgroundImageFix"/>
<feColorMatrix in="SourceAlpha" type="matrix" values="0 0 0 0 0 0 0 0 0 0 0 0 0 0 0 0 0 0 127 0" result="hardAlpha"/>
<feOffset dx="4" dy="10"/>
<feGaussianBlur stdDeviation="12"/>
<feComposite in2="hardAlpha" operator="out"/>
<feColorMatrix type="matrix" values="0 0 0 0 0 0 0 0 0 0 0 0 0 0 0 0 0 0 0.1 0"/>
<feBlend mode="normal" in2="BackgroundImageFix" result="effect1_dropShadow_11_191"/>
<feBlend mode="normal" in="SourceGraphic" in2="effect1_dropShadow_11_191" result="shape"/>
</filter>
</defs>
</svg>
